# xmcd
#
# Track frame offsets:
#	150
#	16555
#	30202
#	53050
#	66882
#	84480
#	102212
#	118215
#	136405
#	150357
#	163982
#	183052
#
# Disc length: 2689 seconds
#
# Revision: 5
# Processed by: cddbd v1.5.2PL0 Copyright (c) Steve Scherf et al.
# Submitted via: EZCDAudioConverter 8.2.2.1
#
DISCID=880a7f0c
DTITLE=LEANDRO and LEONARDO - SOLIDÃO [CD 179414-2) CHANTECLER
DYEAR=1987
DGENRE=SERTANEJO
TTITLE0=ACONCHEGO (BY GILMAR SINISTRO)
TTITLE1=BICHO DO PARANÁ (BY GILMAR SINISTRO)
TTITLE2=MESMO APESAR DA CHUVA (BY GILMAR SINISTRO)
TTITLE3=FIM DE COMÉDIA (BY GILMAR SINISTRO)
TTITLE4=BEM TE VÍ (BY GILMAR SINISTRO)
TTITLE5=NOSSO AMOR (BY GILMAR SINISTRO)
TTITLE6=VOLTEI PRA FICAR (BY GILMAR SINISTRO)
TTITLE7=SOLIDÃO (BY GILMAR SINISTRO)
TTITLE8=AMOR NAS GALÁXIAS (BY GILMAR SINISTRO)
TTITLE9=RESTO DE VIDA (BY GILMAR SINISTRO)
TTITLE10=O AMOR JÁ FOI EMBORA (BY GILMAR SINISTRO)
TTITLE11=CONSELHO DE PAI (BY GILMAR SINISTRO)
EXTD=
EXTT0=
EXTT1=
EXTT2=
EXTT3=
EXTT4=
EXTT5=
EXTT6=
EXTT7=
EXTT8=
EXTT9=
EXTT10=
EXTT11=
PLAYORDER=
